<svg xmlns="http://www.w3.org/2000/svg" viewBox="0 0 900 400" width="900" height="400" role="img" aria-label="Yesterday in London it was 31.3°C, which is 9.6 degrees above average. It was the warmest 3rd of August in 36 years."><title>Yesterday in London it was 31.3°C, which is 9.6 degrees above average. It was the warmest 3rd of August in 36 years.</title><defs><clipPath id="frame"><rect width="900" height="400"/></clipPath></defs><g clip-path="url(#frame)"><rect width="900" height="400" fill="#f9ff47"/><path d="M250.0 116.7 C255.3 121.5 275.0 135.2 281.6 145.2 C288.3 155.3 283.3 167.9 289.8 177.0 C296.4 186.1 317.4 190.2 321.1 200.0 C324.8 209.8 317.8 225.4 311.9 235.8 C306.1 246.1 296.3 249.0 286.0 262.4 C275.7 275.7 264.0 312.5 250.0 316.0 C236.0 319.4 214.7 294.9 202.2 282.8 C189.7 270.7 184.8 257.1 174.9 243.3 C165.1 229.5 142.9 214.4 143.0 200.0 C143.2 185.6 166.7 172.2 175.9 157.2 C185.1 142.2 185.7 122.7 198.0 110.0 C210.4 97.3 232.3 81.5 250.0 80.9 C267.7 80.2 286.9 96.3 304.2 106.1 C321.5 116.0 344.1 124.5 353.7 140.1 C363.4 155.8 366.7 182.6 362.3 200.0 C357.8 217.4 338.0 231.2 326.9 244.4 C315.8 257.6 308.4 268.8 295.6 279.0 C282.8 289.2 263.2 309.1 250.0 305.7 C236.8 302.2 232.3 266.7 216.4 258.2 C200.5 249.8 168.0 264.7 154.7 255.0 C141.4 245.3 136.6 218.4 136.5 200.0 C136.4 181.6 142.8 158.0 154.0 144.6 C165.2 131.2 187.6 127.8 203.6 119.6 C219.6 111.3 235.4 93.5 250.0 94.9 C264.6 96.4 277.8 118.6 291.4 128.2 C305.1 137.9 321.8 140.7 331.9 152.7 C342.1 164.7 354.3 185.4 352.3 200.0 C350.2 214.6 329.4 227.6 319.6 240.2 C309.8 252.7 305.1 268.7 293.5 275.3 C281.9 281.8 264.1 280.3 250.0 279.7 C235.9 279.1 219.4 278.7 208.7 271.6 C197.9 264.6 193.8 249.3 185.3 237.3 C176.8 225.4 164.5 216.4 157.6 200.0 C150.7 183.6 140.5 159.5 144.0 138.8 C147.4 118.1 160.7 84.2 178.4 76.0 C196.1 67.7 230.0 82.5 250.0 89.3 C270.0 96.0 286.0 105.0 298.3 116.4 C310.5 127.8 318.6 143.6 323.5 157.6 C328.4 171.5 325.4 184.5 327.7 200.0 C330.1 215.5 343.4 238.4 337.4 250.4 C331.3 262.4 306.1 266.1 291.6 272.0 C277.0 277.9 265.3 283.4 250.0 285.9 C234.7 288.5 217.3 291.4 199.6 287.3 C182.0 283.2 151.3 275.7 144.1 261.1 C136.9 246.6 151.5 217.5 156.5 200.0 C161.6 182.5 167.4 171.1 174.4 156.4 C181.5 141.6 186.3 119.6 198.9 111.6 C211.5 103.5 232.3 109.1 250.0 107.9 C267.7 106.7 286.7 99.7 305.2 104.4 C323.7 109.1 352.8 120.1 360.8 136.0 C368.7 152.0 355.6 180.2 352.9 200.0 C350.2 219.8 352.2 238.0 344.7 254.7 C337.1 271.3 323.3 294.5 307.6 299.7 C291.8 305.0 266.5 291.0 250.0 286.2 C233.5 281.5 221.0 278.6 208.9 271.3 C196.7 263.9 188.6 254.1 176.9 242.2 C165.2 230.3 140.0 215.0 138.4 200.0 C136.8 185.0 156.3 165.4 167.3 152.3 C178.3 139.1 190.6 133.3 204.4 121.1 C218.2 108.8 236.5 76.1 250.0 79.1 C263.5 82.1 273.6 125.6 285.2 139.1 C296.7 152.6 306.9 149.8 319.4 160.0 C331.8 170.1 353.7 183.0 360.1 200.0 C366.5 217.0 366.4 245.4 357.7 262.2 C349.0 278.9 326.0 287.8 308.0 300.5 C290.1 313.1 268.6 339.5 250.0 338.2 C231.4 336.8 211.6 306.8 196.7 292.4 C181.8 278.0 169.7 267.0 160.6 251.6 C151.5 236.2 143.1 217.8 142.1 200.0 C141.2 182.2 146.2 161.3 154.8 145.0 C163.4 128.8 178.0 109.5 193.8 102.7 C209.7 95.9 229.7 106.9 250.0 104.2 C270.3 101.5 298.4 80.4 315.5 86.6 C332.5 92.7 345.6 122.1 352.3 141.0 C358.9 159.9 359.0 182.5 355.3 200.0 C351.6 217.5 340.1 233.4 329.9 246.2 C319.8 258.9 307.7 267.1 294.3 276.8 C281.0 286.5 266.6 301.1 250.0 304.3 C233.4 307.4 210.4 303.9 194.8 295.6 C179.2 287.2 162.3 270.0 156.4 254.0 C150.5 238.1 157.1 216.6 159.6 200.0 C162.2 183.4 165.3 170.0 171.6 154.7 C177.8 139.4 183.8 121.7 196.9 108.0 C210.0 94.4 231.1 75.0 250.0 73.0 C268.9 70.9 295.4 83.0 310.3 95.6 C325.1 108.2 326.9 131.1 339.2 148.5 C351.5 165.9 381.3 181.2 384.1 200.0 C387.0 218.8 370.6 247.2 356.4 261.4 C342.2 275.6 316.9 281.0 299.2 285.1 C281.4 289.3 267.8 284.0 250.0 286.4 C232.2 288.9 208.4 305.1 192.3 299.9 C176.2 294.8 158.5 272.4 153.4 255.8 C148.3 239.1 163.4 219.4 161.9 200.0 C160.5 180.6 137.8 152.6 144.8 139.3 C151.8 125.9 186.2 124.6 203.7 119.8 C221.3 115.0 234.2 111.0 250.0 110.4 C265.8 109.8 282.8 110.4 298.3 116.4 C313.8 122.4 338.8 132.4 343.0 146.3 C347.2 160.3 328.3 184.9 323.5 200.0 C318.6 215.1 317.4 221.7 313.9 236.9 C310.5 252.2 313.5 282.2 302.8 291.5 C292.2 300.7 265.2 296.6 250.0 292.5 C234.8 288.4 228.5 272.4 211.4 266.8 C194.4 261.2 159.7 270.1 147.9 259.0 C136.1 247.8 138.2 218.2 140.7 200.0 C143.2 181.8 153.6 165.4 162.7 149.6 C171.7 133.8 180.7 114.6 195.3 105.2 C209.8 95.8 230.4 95.4 250.0 93.1 C269.6 90.8 295.0 83.7 312.8 91.2 C330.6 98.8 348.6 120.3 356.6 138.4 C364.6 156.6 362.1 180.2 360.8 200.0 C359.6 219.8 358.8 241.9 349.2 257.3 C339.5 272.6 319.7 279.8 303.1 292.0 C286.6 304.3 270.3 326.0 250.0 330.5 C229.7 335.1 196.2 332.5 181.0 319.4 C165.9 306.4 169.0 272.4 159.1 252.5 C149.3 232.6 125.1 219.2 122.1 200.0 C119.0 180.8 126.4 148.8 141.0 137.0 C155.5 125.3 191.2 138.1 209.3 129.6 C227.5 121.0 233.5 90.8 250.0 85.6 C266.5 80.5 294.0 88.0 308.5 98.7 C323.0 109.4 330.9 133.0 336.9 149.8 C342.8 166.7 344.2 183.2 344.3 200.0 C344.4 216.8 342.3 231.4 337.7 250.6 C333.1 269.8 331.1 310.2 316.5 315.2 C301.9 320.3 269.0 286.4 250.0 280.9 C231.0 275.4 223.7 283.6 202.4 282.4 C181.2 281.2 135.1 287.4 122.5 273.6 C109.9 259.9 120.4 220.8 126.8 200.0 C133.2 179.2 149.9 164.9 161.0 148.6 C172.1 132.3 178.7 111.8 193.5 102.1 C208.3 92.4 229.1 94.1 250.0 90.6 C270.9 87.1 301.6 72.7 318.6 81.1 C335.6 89.6 346.9 121.3 352.1 141.1 C357.2 160.9 349.8 180.6 349.4 200.0 C349.0 219.4 358.8 244.4 349.9 257.7 C341.0 271.0 312.8 274.8 296.1 279.9 C279.5 284.9 267.0 285.1 250.0 287.9 C233.0 290.7 208.6 303.1 194.1 296.8 C179.6 290.5 171.5 266.3 163.1 250.2 C154.6 234.0 143.7 216.9 143.4 200.0 C143.2 183.1 152.9 164.7 161.5 148.9 C170.1 133.1 180.4 112.2 195.2 105.0 C209.9 97.9 233.1 103.8 250.0 106.2 C266.9 108.7 278.1 114.7 296.3 119.8 C314.5 124.9 343.1 123.5 359.4 136.9 C375.6 150.2 392.7 178.4 393.7 200.0 C394.7 221.6 377.2 245.6 365.3 266.6 C353.5 287.5 341.8 317.1 322.6 325.7 C303.4 334.4 271.7 322.8 250.0 318.5 C228.3 314.1 206.5 311.2 192.5 299.6 C178.5 287.9 172.4 265.3 165.7 248.7 C159.0 232.1 154.7 217.6 152.4 200.0 C150.1 182.4 144.7 159.2 151.7 143.2 C158.7 127.2 178.2 112.2 194.6 104.0 C211.0 95.8 230.6 95.5 250.0 93.9 C269.4 92.4 292.9 87.3 310.9 94.5 C328.9 101.8 345.5 120.0 358.1 137.6 C370.7 155.2 383.6 177.5 386.6 200.0 C389.6 222.5 387.1 252.5 376.0 272.8 C365.0 293.0 341.2 306.8 320.2 321.6 C299.2 336.3 276.4 356.2 250.0 361.4 C223.6 366.5 176.7 353.9 162.0 352.4" fill="none" stroke="#fc4b34" stroke-width="9" stroke-linecap="round" stroke-linejoin="round"/><g fill="#3d2415" transform="translate(-46.0 118.0) scale(0.205000 -0.205000)"><path d="M313 -15C472 -15 575 62 575 204C575 286 538 349 452 377V379C513 409 553 457 553 534C553 659 442 730 309 730C142 730 47 632 47 498H188C188 567 226 611 306 611C375 611 406 573 406 522C406 453 358 422 294 422H250V318H298C373 318 427 291 427 207C427 143 395 103 306 103C204 103 168 158 168 248H27C27 81 130 -15 313 -15Z" transform="translate(0 0)"/><path d="M159 509V0H303V715H176C173 632 115 592 14 591V477C75 477 131 484 159 509Z" transform="translate(568 0)"/><path d="M41 0H177V136H41Z" transform="translate(894 0)"/><path d="M313 -15C472 -15 575 62 575 204C575 286 538 349 452 377V379C513 409 553 457 553 534C553 659 442 730 309 730C142 730 47 632 47 498H188C188 567 226 611 306 611C375 611 406 573 406 522C406 453 358 422 294 422H250V318H298C373 318 427 291 427 207C427 143 395 103 306 103C204 103 168 158 168 248H27C27 81 130 -15 313 -15Z" transform="translate(1067 0)"/><path d="M192 425C290 425 347 501 347 578C347 656 290 730 192 730C92 730 36 656 36 578C36 501 92 425 192 425ZM192 500C154 500 119 526 119 578C119 631 154 656 192 656C230 656 265 631 265 578C265 526 230 500 192 500Z" transform="translate(1635 0)"/></g><g fill="#3d2415" transform="translate(-46.0 276.0) scale(0.205000 -0.205000)"><path d="M313 -15C472 -15 575 62 575 204C575 286 538 349 452 377V379C513 409 553 457 553 534C553 659 442 730 309 730C142 730 47 632 47 498H188C188 567 226 611 306 611C375 611 406 573 406 522C406 453 358 422 294 422H250V318H298C373 318 427 291 427 207C427 143 395 103 306 103C204 103 168 158 168 248H27C27 81 130 -15 313 -15Z" transform="translate(0 0)"/><path d="M159 509V0H303V715H176C173 632 115 592 14 591V477C75 477 131 484 159 509Z" transform="translate(568 0)"/><path d="M41 0H177V136H41Z" transform="translate(894 0)"/><path d="M313 -15C472 -15 575 62 575 204C575 286 538 349 452 377V379C513 409 553 457 553 534C553 659 442 730 309 730C142 730 47 632 47 498H188C188 567 226 611 306 611C375 611 406 573 406 522C406 453 358 422 294 422H250V318H298C373 318 427 291 427 207C427 143 395 103 306 103C204 103 168 158 168 248H27C27 81 130 -15 313 -15Z" transform="translate(1067 0)"/><path d="M192 425C290 425 347 501 347 578C347 656 290 730 192 730C92 730 36 656 36 578C36 501 92 425 192 425ZM192 500C154 500 119 526 119 578C119 631 154 656 192 656C230 656 265 631 265 578C265 526 230 500 192 500Z" transform="translate(1635 0)"/></g><g fill="#3d2415" transform="translate(-46.0 434.0) scale(0.205000 -0.205000)"><path d="M313 -15C472 -15 575 62 575 204C575 286 538 349 452 377V379C513 409 553 457 553 534C553 659 442 730 309 730C142 730 47 632 47 498H188C188 567 226 611 306 611C375 611 406 573 406 522C406 453 358 422 294 422H250V318H298C373 318 427 291 427 207C427 143 395 103 306 103C204 103 168 158 168 248H27C27 81 130 -15 313 -15Z" transform="translate(0 0)"/><path d="M159 509V0H303V715H176C173 632 115 592 14 591V477C75 477 131 484 159 509Z" transform="translate(568 0)"/><path d="M41 0H177V136H41Z" transform="translate(894 0)"/><path d="M313 -15C472 -15 575 62 575 204C575 286 538 349 452 377V379C513 409 553 457 553 534C553 659 442 730 309 730C142 730 47 632 47 498H188C188 567 226 611 306 611C375 611 406 573 406 522C406 453 358 422 294 422H250V318H298C373 318 427 291 427 207C427 143 395 103 306 103C204 103 168 158 168 248H27C27 81 130 -15 313 -15Z" transform="translate(1067 0)"/><path d="M192 425C290 425 347 501 347 578C347 656 290 730 192 730C92 730 36 656 36 578C36 501 92 425 192 425ZM192 500C154 500 119 526 119 578C119 631 154 656 192 656C230 656 265 631 265 578C265 526 230 500 192 500Z" transform="translate(1635 0)"/></g><g fill="#3d2415" transform="translate(492.0 84.0) scale(0.011000 -0.011000)"><path d="M65 0H552V125H215V715H65Z" transform="translate(0 0)"/><path d="M385 -15C605 -15 738 142 738 358C738 573 605 730 385 730C164 730 32 573 32 358C32 142 164 -15 385 -15ZM385 110C238 110 187 223 187 358C187 492 238 605 385 605C532 605 583 492 583 358C583 223 532 110 385 110Z" transform="translate(867 0)"/><path d="M65 0H213V478H215L506 0H659V715H512V237H510L218 715H65Z" transform="translate(1937 0)"/><path d="M65 0H369C568 0 681 127 681 357C681 587 561 715 362 715H65ZM348 125H215V590H348C483 590 527 491 527 357C527 223 483 125 348 125Z" transform="translate(2961 0)"/><path d="M385 -15C605 -15 738 142 738 358C738 573 605 730 385 730C164 730 32 573 32 358C32 142 164 -15 385 -15ZM385 110C238 110 187 223 187 358C187 492 238 605 385 605C532 605 583 492 583 358C583 223 532 110 385 110Z" transform="translate(3977 0)"/><path d="M65 0H213V478H215L506 0H659V715H512V237H510L218 715H65Z" transform="translate(5047 0)"/></g><g fill="#fc4b34" transform="translate(492.0 146.0) scale(0.044000 -0.044000)"><path d="M-1 0H159L211 159H479L530 0H694L423 715H268ZM248 277 344 577H346L443 277Z" transform="translate(0 0)"/><path d="M212 -15C302 -15 353 26 380 70H382V0H519V511H382V209C382 136 340 97 271 97C210 97 182 131 182 205V511H45V163C45 46 115 -15 212 -15Z" transform="translate(694 0)"/><path d="M237 -9C265 -9 289 -6 320 1V101C300 98 293 97 277 97C242 97 223 105 223 159V406H315V511H223V662H86V511H14V406H86V158C86 35 135 -9 237 -9Z" transform="translate(1261 0)"/><path d="M290 -16C457 -16 558 96 558 257C558 418 457 528 292 528C125 528 24 415 24 255C24 94 125 -16 290 -16ZM291 89C207 89 164 154 164 256C164 358 207 422 291 422C375 422 418 358 418 256C418 154 375 89 291 89Z" transform="translate(1609 0)"/><path d="M360 307V0H497V302C497 376 535 414 594 414C657 414 673 381 673 307V0H810V349C810 463 753 527 647 527C567 527 516 488 481 437H478C458 491 412 527 344 527C267 527 214 485 187 441H185V511H48V0H185V302C185 376 223 414 282 414C345 414 360 381 360 307Z" transform="translate(2191 0)"/><path d="M187 -15C264 -15 322 17 358 66H360C367 18 392 -6 450 -6C471 -6 498 -4 524 1V72C518 71 515 71 512 71C494 71 491 85 491 116V329C491 476 411 528 285 528C118 528 49 446 44 348H177C182 405 209 431 279 431C336 431 358 408 358 376C358 326 289 317 225 304C110 281 23 242 23 133C23 44 86 -15 187 -15ZM237 83C189 83 164 104 164 146C164 189 191 214 261 229C308 240 339 248 358 258V204C358 134 310 83 237 83Z" transform="translate(3045 0)"/><path d="M237 -9C265 -9 289 -6 320 1V101C300 98 293 97 277 97C242 97 223 105 223 159V406H315V511H223V662H86V511H14V406H86V158C86 35 135 -9 237 -9Z" transform="translate(3594 0)"/><path d="M48 0H185V511H48ZM46 583H188V712H46Z" transform="translate(3942 0)"/><path d="M283 -16C424 -16 516 70 524 192H385C380 140 357 90 283 90C200 90 165 160 165 256C165 352 201 422 283 422C358 422 380 369 385 322H524C511 442 422 528 281 528C125 528 24 415 24 256C24 96 125 -16 283 -16Z" transform="translate(4175 0)"/><path d="M187 -15C264 -15 322 17 358 66H360C367 18 392 -6 450 -6C471 -6 498 -4 524 1V72C518 71 515 71 512 71C494 71 491 85 491 116V329C491 476 411 528 285 528C118 528 49 446 44 348H177C182 405 209 431 279 431C336 431 358 408 358 376C358 326 289 317 225 304C110 281 23 242 23 133C23 44 86 -15 187 -15ZM237 83C189 83 164 104 164 146C164 189 191 214 261 229C308 240 339 248 358 258V204C358 134 310 83 237 83Z" transform="translate(4721 0)"/><path d="M48 0H185V715H48Z" transform="translate(5270 0)"/><path d="M48 0H185V715H48Z" transform="translate(5503 0)"/><path d="M142 -180C242 -180 291 -127 337 -5L530 511H392L271 155H269L138 511H-5L202 6C183 -59 138 -68 104 -68C87 -68 75 -67 58 -65V-171C88 -177 112 -180 142 -180Z" transform="translate(5736 0)"/></g><g fill="#fc4b34" transform="translate(492.0 189.1) scale(0.044000 -0.044000)"><path d="M185 248C185 341 250 395 329 395C340 395 349 394 362 392V515C345 518 332 518 317 518C256 518 212 480 187 423H185V511H48V0H185Z" transform="translate(0 0)"/><path d="M285 -16C425 -16 507 55 535 156H395C385 126 358 89 288 89C213 89 163 144 163 221V223H539C540 232 540 246 540 255C540 430 452 528 285 528C119 528 24 410 24 256C24 97 121 -16 285 -16ZM163 310C168 383 215 425 284 425C355 425 400 381 400 310Z" transform="translate(371 0)"/><path d="M339 -15C472 -15 564 88 564 256C564 424 472 527 339 527C262 527 210 488 187 457H185V715H48V0H185V55H187C210 23 262 -15 339 -15ZM305 90C231 90 187 150 187 256C187 361 231 421 305 421C381 421 422 356 422 256C422 156 381 90 305 90Z" transform="translate(936 0)"/><path d="M212 -15C302 -15 353 26 380 70H382V0H519V511H382V209C382 136 340 97 271 97C210 97 182 131 182 205V511H45V163C45 46 115 -15 212 -15Z" transform="translate(1526 0)"/><path d="M48 0H185V511H48ZM46 583H188V712H46Z" transform="translate(2093 0)"/><path d="M48 0H185V715H48Z" transform="translate(2326 0)"/><path d="M237 -9C265 -9 289 -6 320 1V101C300 98 293 97 277 97C242 97 223 105 223 159V406H315V511H223V662H86V511H14V406H86V158C86 35 135 -9 237 -9Z" transform="translate(2559 0)"/><path d="M285 -16C425 -16 507 55 535 156H395C385 126 358 89 288 89C213 89 163 144 163 221V223H539C540 232 540 246 540 255C540 430 452 528 285 528C119 528 24 410 24 256C24 97 121 -16 285 -16ZM163 310C168 383 215 425 284 425C355 425 400 381 400 310Z" transform="translate(3104 0)"/><path d="M183 0H334L513 511H376L261 147H260L145 511H4Z" transform="translate(3669 0)"/><path d="M285 -16C425 -16 507 55 535 156H395C385 126 358 89 288 89C213 89 163 144 163 221V223H539C540 232 540 246 540 255C540 430 452 528 285 528C119 528 24 410 24 256C24 97 121 -16 285 -16ZM163 310C168 383 215 425 284 425C355 425 400 381 400 310Z" transform="translate(4186 0)"/><path d="M185 248C185 341 250 395 329 395C340 395 349 394 362 392V515C345 518 332 518 317 518C256 518 212 480 187 423H185V511H48V0H185Z" transform="translate(4751 0)"/><path d="M142 -180C242 -180 291 -127 337 -5L530 511H392L271 155H269L138 511H-5L202 6C183 -59 138 -68 104 -68C87 -68 75 -67 58 -65V-171C88 -177 112 -180 142 -180Z" transform="translate(5122 0)"/></g><g fill="#fc4b34" transform="translate(492.0 232.2) scale(0.044000 -0.044000)"><path d="M360 307V0H497V302C497 376 535 414 594 414C657 414 673 381 673 307V0H810V349C810 463 753 527 647 527C567 527 516 488 481 437H478C458 491 412 527 344 527C267 527 214 485 187 441H185V511H48V0H185V302C185 376 223 414 282 414C345 414 360 381 360 307Z" transform="translate(0 0)"/><path d="M290 -16C457 -16 558 96 558 257C558 418 457 528 292 528C125 528 24 415 24 255C24 94 125 -16 290 -16ZM291 89C207 89 164 154 164 256C164 358 207 422 291 422C375 422 418 358 418 256C418 154 375 89 291 89Z" transform="translate(854 0)"/><path d="M185 248C185 341 250 395 329 395C340 395 349 394 362 392V515C345 518 332 518 317 518C256 518 212 480 187 423H185V511H48V0H185Z" transform="translate(1436 0)"/><path d="M385 307V0H523V349C523 466 452 527 355 527C265 527 214 485 187 441H185V511H48V0H185V302C185 376 227 414 297 414C357 414 385 381 385 307Z" transform="translate(1807 0)"/><path d="M48 0H185V511H48ZM46 583H188V712H46Z" transform="translate(2374 0)"/><path d="M385 307V0H523V349C523 466 452 527 355 527C265 527 214 485 187 441H185V511H48V0H185V302C185 376 227 414 297 414C357 414 385 381 385 307Z" transform="translate(2607 0)"/><path d="M281 -183C434 -183 531 -119 531 53V511H394V457H392C369 487 323 527 245 527C116 527 27 429 27 276C27 122 116 25 245 25C323 25 369 63 392 95H394V51C394 -42 361 -81 281 -81C215 -81 188 -53 178 -18H38C53 -103 127 -183 281 -183ZM280 130C203 130 168 188 168 276C168 364 203 421 280 421C353 421 391 369 391 276C391 182 353 130 280 130Z" transform="translate(3174 0)"/><path d="M41 0H177V136H41Z" transform="translate(3752 0)"/></g><g fill="#3d2415" transform="translate(492.0 278.0) scale(0.015000 -0.015000)"><path d="M294 0H367V293L629 715H551L332 350H330L112 715H33L294 293Z" transform="translate(0 0)"/><path d="M301 -14C429 -14 503 61 526 149H458C448 109 408 42 302 42C182 42 127 138 126 242H530C531 250 531 264 531 278C531 420 448 523 302 523C154 523 58 418 58 255C58 100 145 -14 301 -14ZM126 297C130 394 198 468 298 468C403 468 462 391 462 297Z" transform="translate(662 0)"/><path d="M274 -13C400 -13 474 48 474 141C474 247 380 273 283 297C205 316 137 325 137 389C137 438 178 467 251 467C350 467 377 416 386 374H454C445 454 383 522 250 522C135 522 69 468 69 385C69 286 164 263 258 239C328 222 405 214 405 139C405 89 372 42 275 42C168 42 122 93 118 160H50C53 63 131 -13 274 -13Z" transform="translate(1251 0)"/><path d="M234 -4C250 -4 263 -3 282 0V55C268 54 259 53 243 53C193 53 179 68 179 131V453H282V510H179V680H114V510H39V453H114V132C114 21 160 -4 234 -4Z" transform="translate(1779 0)"/><path d="M301 -14C429 -14 503 61 526 149H458C448 109 408 42 302 42C182 42 127 138 126 242H530C531 250 531 264 531 278C531 420 448 523 302 523C154 523 58 418 58 255C58 100 145 -14 301 -14ZM126 297C130 394 198 468 298 468C403 468 462 391 462 297Z" transform="translate(2114 0)"/><path d="M151 285C151 384 219 458 311 458C321 458 331 457 342 455V519C329 521 316 522 298 522C226 522 179 474 153 406H151V510H86V0H151Z" transform="translate(2703 0)"/><path d="M283 -13C372 -13 426 34 455 83H457V0H522V715H457V424H455C426 477 372 522 283 522C159 522 59 422 59 255C59 87 159 -13 283 -13ZM291 44C185 44 127 140 127 255C127 369 185 465 291 465C389 465 457 383 457 255C457 126 389 44 291 44Z" transform="translate(3080 0)"/><path d="M224 -13C308 -13 368 18 404 77H406C409 14 435 -4 477 -4C489 -4 501 -2 512 0V46C505 45 502 45 497 45C475 45 469 65 469 106V361C469 483 386 523 292 523C139 523 80 450 75 365H143C148 434 186 466 290 466C372 466 405 433 405 384C405 323 352 317 267 302C136 279 57 243 57 129C57 44 123 -13 224 -13ZM232 44C158 44 126 76 126 135C126 203 176 230 275 248C335 258 390 270 405 291V191C405 99 337 44 232 44Z" transform="translate(3689 0)"/><path d="M131 -179C199 -179 244 -142 294 -15L498 510H428L270 85H268L102 510H30L236 3C209 -91 169 -122 121 -122C105 -122 98 -121 82 -119V-175C102 -178 115 -179 131 -179Z" transform="translate(4254 0)"/><path d="M86 0H151V510H86ZM77 612H161V696H77Z" transform="translate(5050 0)"/><path d="M430 343V0H495V358C495 471 420 522 327 522C238 522 182 480 153 437H151V510H86V0H151V322C151 397 214 465 313 465C394 465 430 414 430 343Z" transform="translate(5287 0)"/><path d="M98 0H557V64H171V715H98Z" transform="translate(6127 0)"/><path d="M303 -14C456 -14 548 96 548 254C548 413 456 523 303 523C150 523 58 413 58 254C58 96 150 -14 303 -14ZM303 43C184 43 126 137 126 254C126 372 184 466 303 466C422 466 480 372 480 254C480 137 422 43 303 43Z" transform="translate(6720 0)"/><path d="M430 343V0H495V358C495 471 420 522 327 522C238 522 182 480 153 437H151V510H86V0H151V322C151 397 214 465 313 465C394 465 430 414 430 343Z" transform="translate(7326 0)"/><path d="M283 -13C372 -13 426 34 455 83H457V0H522V715H457V424H455C426 477 372 522 283 522C159 522 59 422 59 255C59 87 159 -13 283 -13ZM291 44C185 44 127 140 127 255C127 369 185 465 291 465C389 465 457 383 457 255C457 126 389 44 291 44Z" transform="translate(7903 0)"/><path d="M303 -14C456 -14 548 96 548 254C548 413 456 523 303 523C150 523 58 413 58 254C58 96 150 -14 303 -14ZM303 43C184 43 126 137 126 254C126 372 184 466 303 466C422 466 480 372 480 254C480 137 422 43 303 43Z" transform="translate(8512 0)"/><path d="M430 343V0H495V358C495 471 420 522 327 522C238 522 182 480 153 437H151V510H86V0H151V322C151 397 214 465 313 465C394 465 430 414 430 343Z" transform="translate(9118 0)"/><path d="M86 0H151V510H86ZM77 612H161V696H77Z" transform="translate(9958 0)"/><path d="M234 -4C250 -4 263 -3 282 0V55C268 54 259 53 243 53C193 53 179 68 179 131V453H282V510H179V680H114V510H39V453H114V132C114 21 160 -4 234 -4Z" transform="translate(10195 0)"/><path d="M200 0H273L391 440H396L515 0H587L750 510H682L554 66H549L431 510H358L240 66H234L107 510H38Z" transform="translate(10793 0)"/><path d="M224 -13C308 -13 368 18 404 77H406C409 14 435 -4 477 -4C489 -4 501 -2 512 0V46C505 45 502 45 497 45C475 45 469 65 469 106V361C469 483 386 523 292 523C139 523 80 450 75 365H143C148 434 186 466 290 466C372 466 405 433 405 384C405 323 352 317 267 302C136 279 57 243 57 129C57 44 123 -13 224 -13ZM232 44C158 44 126 76 126 135C126 203 176 230 275 248C335 258 390 270 405 291V191C405 99 337 44 232 44Z" transform="translate(11581 0)"/><path d="M274 -13C400 -13 474 48 474 141C474 247 380 273 283 297C205 316 137 325 137 389C137 438 178 467 251 467C350 467 377 416 386 374H454C445 454 383 522 250 522C135 522 69 468 69 385C69 286 164 263 258 239C328 222 405 214 405 139C405 89 372 42 275 42C168 42 122 93 118 160H50C53 63 131 -13 274 -13Z" transform="translate(12146 0)"/><path d="M302 -13C445 -13 541 63 541 197C541 282 501 346 409 376V379C477 408 515 455 515 536C515 658 414 728 301 728C136 728 55 632 55 505H131C131 582 162 665 301 665C400 665 439 601 439 536C439 450 386 407 312 407H242V344H316C386 344 465 308 465 197C465 107 417 50 297 50C164 50 112 128 112 239H36C36 81 134 -13 302 -13Z" transform="translate(12937 0)"/><path d="M156 577V0H228V715H163C155 636 133 598 12 595V535C74 535 122 539 156 577Z" transform="translate(13522 0)"/><path d="M72 0H156V84H72Z" transform="translate(13831 0)"/><path d="M302 -13C445 -13 541 63 541 197C541 282 501 346 409 376V379C477 408 515 455 515 536C515 658 414 728 301 728C136 728 55 632 55 505H131C131 582 162 665 301 665C400 665 439 601 439 536C439 450 386 407 312 407H242V344H316C386 344 465 308 465 197C465 107 417 50 297 50C164 50 112 128 112 239H36C36 81 134 -13 302 -13Z" transform="translate(14059 0)"/><path d="M213 428C317 428 366 511 366 578C366 645 317 728 213 728C108 728 61 645 61 578C61 511 108 428 213 428ZM213 479C152 479 114 522 114 578C114 635 152 678 213 678C275 678 312 635 312 578C312 522 275 479 213 479Z" transform="translate(14644 0)"/><path d="M392 -13C560 -13 671 94 688 240H612C604 149 541 51 392 51C218 51 138 195 138 357C138 519 217 664 394 664C536 664 595 574 609 501H685C667 627 556 728 393 728C195 728 62 574 62 357C62 139 196 -13 392 -13Z" transform="translate(15071 0)"/><path d="M71 -78V-121C139 -100 155 -56 155 0V84H71V0H112C113 -48 104 -66 71 -78Z" transform="translate(15811 0)"/><path d="M200 0H273L391 440H396L515 0H587L750 510H682L554 66H549L431 510H358L240 66H234L107 510H38Z" transform="translate(16300 0)"/><path d="M430 343V0H495V358C495 471 419 522 328 522C237 522 182 480 153 437H151V715H86V0H151V322C151 397 215 465 312 465C400 465 430 408 430 343Z" transform="translate(17088 0)"/><path d="M86 0H151V510H86ZM77 612H161V696H77Z" transform="translate(17665 0)"/><path d="M302 -13C426 -13 514 66 521 169H453C449 113 409 43 302 43C177 43 126 150 126 255C126 359 177 465 302 465C408 465 449 392 453 338H521C510 441 426 522 302 522C156 522 58 414 58 255C58 95 156 -13 302 -13Z" transform="translate(17902 0)"/><path d="M430 343V0H495V358C495 471 419 522 328 522C237 522 182 480 153 437H151V715H86V0H151V322C151 397 215 465 312 465C400 465 430 408 430 343Z" transform="translate(18477 0)"/><path d="M86 0H151V510H86ZM77 612H161V696H77Z" transform="translate(19317 0)"/><path d="M274 -13C400 -13 474 48 474 141C474 247 380 273 283 297C205 316 137 325 137 389C137 438 178 467 251 467C350 467 377 416 386 374H454C445 454 383 522 250 522C135 522 69 468 69 385C69 286 164 263 258 239C328 222 405 214 405 139C405 89 372 42 275 42C168 42 122 93 118 160H50C53 63 131 -13 274 -13Z" transform="translate(19554 0)"/><path d="M272 -13C439 -13 531 126 531 368C531 591 457 728 278 728C131 728 43 620 43 486C43 346 133 251 265 251C346 251 425 294 456 382L459 381V353C459 187 415 50 272 50C192 50 146 98 137 177H62C71 70 152 -13 272 -13ZM271 315C179 315 119 381 119 489C119 595 175 665 278 665C385 665 443 589 443 497C443 381 367 315 271 315Z" transform="translate(20345 0)"/><path d="M72 0H156V84H72Z" transform="translate(20925 0)"/><path d="M301 -13C448 -13 536 95 536 230C536 369 446 464 314 464C233 464 154 421 123 333L121 334V357C121 528 164 665 307 665C387 665 434 616 442 539H517C508 646 427 728 307 728C140 728 48 589 48 347C48 124 123 -13 301 -13ZM301 50C194 50 136 126 136 218C136 334 212 401 308 401C401 401 460 334 460 226C460 121 404 50 301 50Z" transform="translate(21153 0)"/></g><g fill="#3d2415" transform="translate(492.0 299.0) scale(0.015000 -0.015000)"><path d="M283 -13C372 -13 426 34 455 83H457V0H522V715H457V424H455C426 477 372 522 283 522C159 522 59 422 59 255C59 87 159 -13 283 -13ZM291 44C185 44 127 140 127 255C127 369 185 465 291 465C389 465 457 383 457 255C457 126 389 44 291 44Z" transform="translate(0 0)"/><path d="M301 -14C429 -14 503 61 526 149H458C448 109 408 42 302 42C182 42 127 138 126 242H530C531 250 531 264 531 278C531 420 448 523 302 523C154 523 58 418 58 255C58 100 145 -14 301 -14ZM126 297C130 394 198 468 298 468C403 468 462 391 462 297Z" transform="translate(609 0)"/><path d="M294 -183C434 -183 524 -112 524 32V510H459V430H457C427 481 371 522 285 522C163 522 61 442 61 274C61 104 163 24 285 24C371 24 427 65 457 118H459V23C459 -81 398 -126 295 -126C196 -126 153 -81 143 -27H75C83 -117 156 -183 294 -183ZM294 81C189 81 129 157 129 274C129 389 189 465 294 465C388 465 459 403 459 274C459 143 388 81 294 81Z" transform="translate(1198 0)"/><path d="M151 285C151 384 219 458 311 458C321 458 331 457 342 455V519C329 521 316 522 298 522C226 522 179 474 153 406H151V510H86V0H151Z" transform="translate(1807 0)"/><path d="M301 -14C429 -14 503 61 526 149H458C448 109 408 42 302 42C182 42 127 138 126 242H530C531 250 531 264 531 278C531 420 448 523 302 523C154 523 58 418 58 255C58 100 145 -14 301 -14ZM126 297C130 394 198 468 298 468C403 468 462 391 462 297Z" transform="translate(2184 0)"/><path d="M301 -14C429 -14 503 61 526 149H458C448 109 408 42 302 42C182 42 127 138 126 242H530C531 250 531 264 531 278C531 420 448 523 302 523C154 523 58 418 58 255C58 100 145 -14 301 -14ZM126 297C130 394 198 468 298 468C403 468 462 391 462 297Z" transform="translate(2773 0)"/><path d="M274 -13C400 -13 474 48 474 141C474 247 380 273 283 297C205 316 137 325 137 389C137 438 178 467 251 467C350 467 377 416 386 374H454C445 454 383 522 250 522C135 522 69 468 69 385C69 286 164 263 258 239C328 222 405 214 405 139C405 89 372 42 275 42C168 42 122 93 118 160H50C53 63 131 -13 274 -13Z" transform="translate(3362 0)"/><path d="M224 -13C308 -13 368 18 404 77H406C409 14 435 -4 477 -4C489 -4 501 -2 512 0V46C505 45 502 45 497 45C475 45 469 65 469 106V361C469 483 386 523 292 523C139 523 80 450 75 365H143C148 434 186 466 290 466C372 466 405 433 405 384C405 323 352 317 267 302C136 279 57 243 57 129C57 44 123 -13 224 -13ZM232 44C158 44 126 76 126 135C126 203 176 230 275 248C335 258 390 270 405 291V191C405 99 337 44 232 44Z" transform="translate(4153 0)"/><path d="M325 -12C450 -12 550 88 550 255C550 423 450 523 325 523C236 523 183 478 153 428H151V715H86V0H151V87H153C183 32 236 -12 325 -12ZM318 45C220 45 151 127 151 255C151 384 220 467 318 467C424 467 482 370 482 255C482 141 424 45 318 45Z" transform="translate(4718 0)"/><path d="M303 -14C456 -14 548 96 548 254C548 413 456 523 303 523C150 523 58 413 58 254C58 96 150 -14 303 -14ZM303 43C184 43 126 137 126 254C126 372 184 466 303 466C422 466 480 372 480 254C480 137 422 43 303 43Z" transform="translate(5327 0)"/><path d="M223 0H297L484 510H414L262 66H261L108 510H36Z" transform="translate(5933 0)"/><path d="M301 -14C429 -14 503 61 526 149H458C448 109 408 42 302 42C182 42 127 138 126 242H530C531 250 531 264 531 278C531 420 448 523 302 523C154 523 58 418 58 255C58 100 145 -14 301 -14ZM126 297C130 394 198 468 298 468C403 468 462 391 462 297Z" transform="translate(6453 0)"/><path d="M224 -13C308 -13 368 18 404 77H406C409 14 435 -4 477 -4C489 -4 501 -2 512 0V46C505 45 502 45 497 45C475 45 469 65 469 106V361C469 483 386 523 292 523C139 523 80 450 75 365H143C148 434 186 466 290 466C372 466 405 433 405 384C405 323 352 317 267 302C136 279 57 243 57 129C57 44 123 -13 224 -13ZM232 44C158 44 126 76 126 135C126 203 176 230 275 248C335 258 390 270 405 291V191C405 99 337 44 232 44Z" transform="translate(7305 0)"/><path d="M223 0H297L484 510H414L262 66H261L108 510H36Z" transform="translate(7870 0)"/><path d="M301 -14C429 -14 503 61 526 149H458C448 109 408 42 302 42C182 42 127 138 126 242H530C531 250 531 264 531 278C531 420 448 523 302 523C154 523 58 418 58 255C58 100 145 -14 301 -14ZM126 297C130 394 198 468 298 468C403 468 462 391 462 297Z" transform="translate(8390 0)"/><path d="M151 285C151 384 219 458 311 458C321 458 331 457 342 455V519C329 521 316 522 298 522C226 522 179 474 153 406H151V510H86V0H151Z" transform="translate(8979 0)"/><path d="M224 -13C308 -13 368 18 404 77H406C409 14 435 -4 477 -4C489 -4 501 -2 512 0V46C505 45 502 45 497 45C475 45 469 65 469 106V361C469 483 386 523 292 523C139 523 80 450 75 365H143C148 434 186 466 290 466C372 466 405 433 405 384C405 323 352 317 267 302C136 279 57 243 57 129C57 44 123 -13 224 -13ZM232 44C158 44 126 76 126 135C126 203 176 230 275 248C335 258 390 270 405 291V191C405 99 337 44 232 44Z" transform="translate(9356 0)"/><path d="M294 -183C434 -183 524 -112 524 32V510H459V430H457C427 481 371 522 285 522C163 522 61 442 61 274C61 104 163 24 285 24C371 24 427 65 457 118H459V23C459 -81 398 -126 295 -126C196 -126 153 -81 143 -27H75C83 -117 156 -183 294 -183ZM294 81C189 81 129 157 129 274C129 389 189 465 294 465C388 465 459 403 459 274C459 143 388 81 294 81Z" transform="translate(9921 0)"/><path d="M301 -14C429 -14 503 61 526 149H458C448 109 408 42 302 42C182 42 127 138 126 242H530C531 250 531 264 531 278C531 420 448 523 302 523C154 523 58 418 58 255C58 100 145 -14 301 -14ZM126 297C130 394 198 468 298 468C403 468 462 391 462 297Z" transform="translate(10530 0)"/><path d="M72 0H156V84H72Z" transform="translate(11119 0)"/><path d="M98 0H171V715H98Z" transform="translate(11610 0)"/><path d="M234 -4C250 -4 263 -3 282 0V55C268 54 259 53 243 53C193 53 179 68 179 131V453H282V510H179V680H114V510H39V453H114V132C114 21 160 -4 234 -4Z" transform="translate(11879 0)"/><path d="M200 0H273L391 440H396L515 0H587L750 510H682L554 66H549L431 510H358L240 66H234L107 510H38Z" transform="translate(12477 0)"/><path d="M224 -13C308 -13 368 18 404 77H406C409 14 435 -4 477 -4C489 -4 501 -2 512 0V46C505 45 502 45 497 45C475 45 469 65 469 106V361C469 483 386 523 292 523C139 523 80 450 75 365H143C148 434 186 466 290 466C372 466 405 433 405 384C405 323 352 317 267 302C136 279 57 243 57 129C57 44 123 -13 224 -13ZM232 44C158 44 126 76 126 135C126 203 176 230 275 248C335 258 390 270 405 291V191C405 99 337 44 232 44Z" transform="translate(13265 0)"/><path d="M274 -13C400 -13 474 48 474 141C474 247 380 273 283 297C205 316 137 325 137 389C137 438 178 467 251 467C350 467 377 416 386 374H454C445 454 383 522 250 522C135 522 69 468 69 385C69 286 164 263 258 239C328 222 405 214 405 139C405 89 372 42 275 42C168 42 122 93 118 160H50C53 63 131 -13 274 -13Z" transform="translate(13830 0)"/><path d="M234 -4C250 -4 263 -3 282 0V55C268 54 259 53 243 53C193 53 179 68 179 131V453H282V510H179V680H114V510H39V453H114V132C114 21 160 -4 234 -4Z" transform="translate(14621 0)"/><path d="M430 343V0H495V358C495 471 419 522 328 522C237 522 182 480 153 437H151V715H86V0H151V322C151 397 215 465 312 465C400 465 430 408 430 343Z" transform="translate(14956 0)"/><path d="M301 -14C429 -14 503 61 526 149H458C448 109 408 42 302 42C182 42 127 138 126 242H530C531 250 531 264 531 278C531 420 448 523 302 523C154 523 58 418 58 255C58 100 145 -14 301 -14ZM126 297C130 394 198 468 298 468C403 468 462 391 462 297Z" transform="translate(15533 0)"/><path d="M200 0H273L391 440H396L515 0H587L750 510H682L554 66H549L431 510H358L240 66H234L107 510H38Z" transform="translate(16385 0)"/><path d="M224 -13C308 -13 368 18 404 77H406C409 14 435 -4 477 -4C489 -4 501 -2 512 0V46C505 45 502 45 497 45C475 45 469 65 469 106V361C469 483 386 523 292 523C139 523 80 450 75 365H143C148 434 186 466 290 466C372 466 405 433 405 384C405 323 352 317 267 302C136 279 57 243 57 129C57 44 123 -13 224 -13ZM232 44C158 44 126 76 126 135C126 203 176 230 275 248C335 258 390 270 405 291V191C405 99 337 44 232 44Z" transform="translate(17173 0)"/><path d="M151 285C151 384 219 458 311 458C321 458 331 457 342 455V519C329 521 316 522 298 522C226 522 179 474 153 406H151V510H86V0H151Z" transform="translate(17738 0)"/><path d="M394 344V0H459V322C459 396 512 465 602 465C680 465 701 415 701 344V0H766V358C766 464 713 522 616 522C535 522 480 479 447 428H445C426 489 379 522 307 522C228 522 179 479 153 438H151V510H86V0H151V322C151 396 204 465 293 465C372 465 394 415 394 344Z" transform="translate(18115 0)"/><path d="M301 -14C429 -14 503 61 526 149H458C448 109 408 42 302 42C182 42 127 138 126 242H530C531 250 531 264 531 278C531 420 448 523 302 523C154 523 58 418 58 255C58 100 145 -14 301 -14ZM126 297C130 394 198 468 298 468C403 468 462 391 462 297Z" transform="translate(18963 0)"/><path d="M274 -13C400 -13 474 48 474 141C474 247 380 273 283 297C205 316 137 325 137 389C137 438 178 467 251 467C350 467 377 416 386 374H454C445 454 383 522 250 522C135 522 69 468 69 385C69 286 164 263 258 239C328 222 405 214 405 139C405 89 372 42 275 42C168 42 122 93 118 160H50C53 63 131 -13 274 -13Z" transform="translate(19552 0)"/><path d="M234 -4C250 -4 263 -3 282 0V55C268 54 259 53 243 53C193 53 179 68 179 131V453H282V510H179V680H114V510H39V453H114V132C114 21 160 -4 234 -4Z" transform="translate(20080 0)"/><path d="M302 -13C445 -13 541 63 541 197C541 282 501 346 409 376V379C477 408 515 455 515 536C515 658 414 728 301 728C136 728 55 632 55 505H131C131 582 162 665 301 665C400 665 439 601 439 536C439 450 386 407 312 407H242V344H316C386 344 465 308 465 197C465 107 417 50 297 50C164 50 112 128 112 239H36C36 81 134 -13 302 -13Z" transform="translate(20678 0)"/><path d="M151 285C151 384 219 458 311 458C321 458 331 457 342 455V519C329 521 316 522 298 522C226 522 179 474 153 406H151V510H86V0H151Z" transform="translate(21263 0)"/><path d="M283 -13C372 -13 426 34 455 83H457V0H522V715H457V424H455C426 477 372 522 283 522C159 522 59 422 59 255C59 87 159 -13 283 -13ZM291 44C185 44 127 140 127 255C127 369 185 465 291 465C389 465 457 383 457 255C457 126 389 44 291 44Z" transform="translate(21640 0)"/><path d="M303 -14C456 -14 548 96 548 254C548 413 456 523 303 523C150 523 58 413 58 254C58 96 150 -14 303 -14ZM303 43C184 43 126 137 126 254C126 372 184 466 303 466C422 466 480 372 480 254C480 137 422 43 303 43Z" transform="translate(22512 0)"/><path d="M117 585V510H45V453H117V0H182V453H283V510H182V586C182 649 194 664 243 664C257 664 266 663 283 662V717C261 720 248 721 234 721C161 721 117 696 117 585Z" transform="translate(23118 0)"/></g><g fill="#3d2415" transform="translate(492.0 320.0) scale(0.015000 -0.015000)"><path d="M31 0H106L178 198H499L571 0H649L380 715H298ZM202 263 338 646H340L476 263Z" transform="translate(0 0)"/><path d="M249 -12C340 -12 395 30 424 72H426V0H491V510H426V188C426 113 362 45 265 45C177 45 147 101 147 166V510H82V152C82 39 158 -12 249 -12Z" transform="translate(680 0)"/><path d="M294 -183C434 -183 524 -112 524 32V510H459V430H457C427 481 371 522 285 522C163 522 61 442 61 274C61 104 163 24 285 24C371 24 427 65 457 118H459V23C459 -81 398 -126 295 -126C196 -126 153 -81 143 -27H75C83 -117 156 -183 294 -183ZM294 81C189 81 129 157 129 274C129 389 189 465 294 465C388 465 459 403 459 274C459 143 388 81 294 81Z" transform="translate(1257 0)"/><path d="M249 -12C340 -12 395 30 424 72H426V0H491V510H426V188C426 113 362 45 265 45C177 45 147 101 147 166V510H82V152C82 39 158 -12 249 -12Z" transform="translate(1866 0)"/><path d="M274 -13C400 -13 474 48 474 141C474 247 380 273 283 297C205 316 137 325 137 389C137 438 178 467 251 467C350 467 377 416 386 374H454C445 454 383 522 250 522C135 522 69 468 69 385C69 286 164 263 258 239C328 222 405 214 405 139C405 89 372 42 275 42C168 42 122 93 118 160H50C53 63 131 -13 274 -13Z" transform="translate(2443 0)"/><path d="M234 -4C250 -4 263 -3 282 0V55C268 54 259 53 243 53C193 53 179 68 179 131V453H282V510H179V680H114V510H39V453H114V132C114 21 160 -4 234 -4Z" transform="translate(2971 0)"/><path d="M86 0H151V510H86ZM77 612H161V696H77Z" transform="translate(3569 0)"/><path d="M430 343V0H495V358C495 471 420 522 327 522C238 522 182 480 153 437H151V510H86V0H151V322C151 397 214 465 313 465C394 465 430 414 430 343Z" transform="translate(3806 0)"/><path d="M302 -13C445 -13 541 63 541 197C541 282 501 346 409 376V379C477 408 515 455 515 536C515 658 414 728 301 728C136 728 55 632 55 505H131C131 582 162 665 301 665C400 665 439 601 439 536C439 450 386 407 312 407H242V344H316C386 344 465 308 465 197C465 107 417 50 297 50C164 50 112 128 112 239H36C36 81 134 -13 302 -13Z" transform="translate(4646 0)"/><path d="M301 -13C448 -13 536 95 536 230C536 369 446 464 314 464C233 464 154 421 123 333L121 334V357C121 528 164 665 307 665C387 665 434 616 442 539H517C508 646 427 728 307 728C140 728 48 589 48 347C48 124 123 -13 301 -13ZM301 50C194 50 136 126 136 218C136 334 212 401 308 401C401 401 460 334 460 226C460 121 404 50 301 50Z" transform="translate(5231 0)"/><path d="M131 -179C199 -179 244 -142 294 -15L498 510H428L270 85H268L102 510H30L236 3C209 -91 169 -122 121 -122C105 -122 98 -121 82 -119V-175C102 -178 115 -179 131 -179Z" transform="translate(6073 0)"/><path d="M301 -14C429 -14 503 61 526 149H458C448 109 408 42 302 42C182 42 127 138 126 242H530C531 250 531 264 531 278C531 420 448 523 302 523C154 523 58 418 58 255C58 100 145 -14 301 -14ZM126 297C130 394 198 468 298 468C403 468 462 391 462 297Z" transform="translate(6606 0)"/><path d="M224 -13C308 -13 368 18 404 77H406C409 14 435 -4 477 -4C489 -4 501 -2 512 0V46C505 45 502 45 497 45C475 45 469 65 469 106V361C469 483 386 523 292 523C139 523 80 450 75 365H143C148 434 186 466 290 466C372 466 405 433 405 384C405 323 352 317 267 302C136 279 57 243 57 129C57 44 123 -13 224 -13ZM232 44C158 44 126 76 126 135C126 203 176 230 275 248C335 258 390 270 405 291V191C405 99 337 44 232 44Z" transform="translate(7195 0)"/><path d="M151 285C151 384 219 458 311 458C321 458 331 457 342 455V519C329 521 316 522 298 522C226 522 179 474 153 406H151V510H86V0H151Z" transform="translate(7760 0)"/><path d="M274 -13C400 -13 474 48 474 141C474 247 380 273 283 297C205 316 137 325 137 389C137 438 178 467 251 467C350 467 377 416 386 374H454C445 454 383 522 250 522C135 522 69 468 69 385C69 286 164 263 258 239C328 222 405 214 405 139C405 89 372 42 275 42C168 42 122 93 118 160H50C53 63 131 -13 274 -13Z" transform="translate(8137 0)"/><path d="M72 0H156V84H72Z" transform="translate(8665 0)"/></g><g fill="#3d2415" transform="translate(492.0 366.0) scale(0.011000 -0.011000)"><path d="M313 -15C472 -15 575 62 575 204C575 286 538 349 452 377V379C513 409 553 457 553 534C553 659 442 730 309 730C142 730 47 632 47 498H188C188 567 226 611 306 611C375 611 406 573 406 522C406 453 358 422 294 422H250V318H298C373 318 427 291 427 207C427 143 395 103 306 103C204 103 168 158 168 248H27C27 81 130 -15 313 -15Z" transform="translate(0 0)"/><path d="M-1 0H159L211 159H479L530 0H694L423 715H268ZM248 277 344 577H346L443 277Z" transform="translate(1410 0)"/><path d="M349 -15C558 -15 641 84 641 252V715H490V252C490 151 443 110 349 110C256 110 210 151 210 252V715H59V252C59 84 142 -15 349 -15Z" transform="translate(2404 0)"/><path d="M356 -15C463 -15 529 25 570 95H572L594 0H701V378H378V263H546C544 172 471 110 374 110C231 110 187 223 187 358C187 492 237 605 372 605C474 605 519 552 535 485H689C670 620 565 730 374 730C158 730 32 573 32 358C32 142 151 -15 356 -15Z" transform="translate(3404 0)"/><path d="M349 -15C558 -15 641 84 641 252V715H490V252C490 151 443 110 349 110C256 110 210 151 210 252V715H59V252C59 84 142 -15 349 -15Z" transform="translate(4449 0)"/><path d="M344 -15C523 -15 619 75 619 206C619 356 484 391 347 429C254 455 201 471 201 533C201 583 242 607 312 607C395 607 442 567 451 499H604C597 643 477 730 311 730C157 730 46 665 46 522C46 391 162 348 281 313C392 282 464 267 464 194C464 145 429 108 339 108C239 108 178 154 175 242H21C25 78 160 -15 344 -15Z" transform="translate(5449 0)"/><path d="M233 0H384V590H601V715H15V590H233Z" transform="translate(6396 0)"/><path d="M27 0H542V119H224V121C246 166 291 199 337 230C434 298 545 375 545 515C545 651 445 730 305 730C123 730 40 618 40 459H182C182 557 218 611 302 611C373 611 397 563 397 507C397 426 341 386 253 325C107 221 27 146 27 0Z" transform="translate(7809 0)"/><path d="M330 -15C531 -15 621 149 621 357C621 566 531 730 330 730C129 730 39 565 39 357C39 149 129 -15 330 -15ZM330 105C220 105 189 219 189 357C189 495 220 609 330 609C440 609 472 495 472 357C472 219 440 105 330 105Z" transform="translate(8697 0)"/><path d="M27 0H542V119H224V121C246 166 291 199 337 230C434 298 545 375 545 515C545 651 445 730 305 730C123 730 40 618 40 459H182C182 557 218 611 302 611C373 611 397 563 397 507C397 426 341 386 253 325C107 221 27 146 27 0Z" transform="translate(9658 0)"/><path d="M328 -15C489 -15 589 92 589 240C589 378 494 480 355 480C278 480 222 448 187 400L184 403V414C184 524 219 619 323 619C391 619 417 575 423 534H569C551 645 457 730 325 730C150 730 40 598 40 351C40 150 112 -15 328 -15ZM321 96C238 96 191 153 191 231C191 310 241 368 324 368C401 368 447 313 447 231C447 152 402 96 321 96Z" transform="translate(10546 0)"/><path d="M65 0H213V478H215L506 0H659V715H512V237H510L218 715H65Z" transform="translate(12962 0)"/><path d="M385 -15C605 -15 738 142 738 358C738 573 605 730 385 730C164 730 32 573 32 358C32 142 164 -15 385 -15ZM385 110C238 110 187 223 187 358C187 492 238 605 385 605C532 605 583 492 583 358C583 223 532 110 385 110Z" transform="translate(13986 0)"/><path d="M41 0H177V136H41Z" transform="translate(15056 0)"/><path d="M305 -15C454 -15 568 78 568 243C568 388 476 483 342 483C274 483 225 462 188 427V429L219 597H536V715H117L39 320H179C209 360 254 378 298 378C377 378 420 332 420 244C420 151 371 103 298 103C214 103 177 156 171 215H30C34 85 128 -15 305 -15Z" transform="translate(16071 0)"/></g></g></svg>
